# xmcd CD database file
#
# Track frame offsets:
#	150
#	12369
#	27222
#	36328
#	45442
#	58753
#	71500
#	82952
#	94109
#	107455
#	123359
#	133943
#	147812
#	158957
#	170895
#	183029
#	193999
#	208577
#	219239
#	229877
#	244590
#	255705
#	265491
#	277599
#	292128
#
# Disc length: 4044 seconds
#
# Revision: 0
# Processed by: cddbd v1.5.2PL0 Copyright (c) Steve Scherf et al.
# Submitted via: CdAid 2001.05.15.01
#
DISCID=6d0fca19
DTITLE=Various Artist - Chart Toppers - Country Greatest, 2CD Sets - Disc 2
DYEAR=1900
DGENRE=
TTITLE0=Behind Closed Door - Charlie Rich
TTITLE1=Dixie Road - Lee Greenwood
TTITLE2=Just Get Up And Close The Door - Johnny Rodriguez
TTITLE3=The First Thing Ev'ry Morning - Jimmy Dean
TTITLE4=Keep Me In Mind - Lynn Anderson
TTITLE5=The Most Beautiful Girl - Charlie Rich
TTITLE6=I'm Gonna Get You - Eddie Raven
TTITLE7=Talk Back Trembling Lips - Ernie Ashworth
TTITLE8=My Baby Got Her Blue Jeans On - Mel McDaniel
TTITLE9=She's Got To Be A Saint - Ray Price
TTITLE10=There Won't Be Anymore - Charlie Rich
TTITLE11=Hell And High Water - T. Graham Brown
TTITLE12=Misery Loves Company - Porter Wagoner
TTITLE13=Take This Job And Shove It - Johnny Paycheck
TTITLE14=Wasted Days And Wasted Nights - Freddy Fender
TTITLE15=Waterloo - Stonewall Jackson
TTITLE16=Woman (Sensuous Woman) - Don Gibson
TTITLE17=Charlie's Shoes - Billy Walker
TTITLE18=Gone - Ferlin Husky
TTITLE19=Harper Valley PTA - Jeannie C. Riley
TTITLE20=It's Such A Pretty World Today - Wynn Stewart
TTITLE21=What A Man My Man Is - Lynn Anderson
TTITLE22=Fraulein - Bobby Helms
TTITLE23=Mornin' Ride - Lee Greenwood
TTITLE24=Rollin' With The Flow - Charlie Rich
EXTD=
EXTT0=
EXTT1=
EXTT2=
EXTT3=
EXTT4=
EXTT5=
EXTT6=
EXTT7=
EXTT8=
EXTT9=
EXTT10=
EXTT11=
EXTT12=
EXTT13=
EXTT14=
EXTT15=
EXTT16=
EXTT17=
EXTT18=
EXTT19=
EXTT20=
EXTT21=
EXTT22=
EXTT23=
EXTT24=
PLAYORDER=
